<?xml version="1.0" encoding="UTF-8"?>
<!DOCTYPE svg PUBLIC "-//W3C//DTD SVG 1.1//EN" "http://www.w3.org/Graphics/SVG/1.1/DTD/svg11.dtd">
<!-- Creator: CorelDRAW 2019 -->
<svg xmlns="http://www.w3.org/2000/svg" xml:space="preserve" width="0.841693in" height="0.841409in" version="1.1" style="shape-rendering:geometricPrecision; text-rendering:geometricPrecision; image-rendering:optimizeQuality; fill-rule:evenodd; clip-rule:evenodd"
viewBox="0 0 714.92 714.68"
 xmlns:xlink="http://www.w3.org/1999/xlink">
 <defs>
  <style type="text/css">
   <![CDATA[
    .fil3 {fill:#373435}
    .fil4 {fill:url(#id0);fill-rule:nonzero}
    .fil1 {fill:url(#id1);fill-rule:nonzero}
    .fil0 {fill:url(#id2);fill-rule:nonzero}
    .fil2 {fill:url(#id3);fill-rule:nonzero}
   ]]>
  </style>
  <linearGradient id="id0" gradientUnits="userSpaceOnUse" x1="86.71" y1="288.91" x2="679.49" y2="359.34">
   <stop offset="0" style="stop-opacity:1; stop-color:#35C4E8"/>
   <stop offset="1" style="stop-opacity:1; stop-color:#149BCE"/>
  </linearGradient>
  <linearGradient id="id1" gradientUnits="userSpaceOnUse" xlink:href="#id0" x1="283.37" y1="497.18" x2="361.27" y2="514.57">
  </linearGradient>
  <linearGradient id="id2" gradientUnits="userSpaceOnUse" xlink:href="#id0" x1="143.36" y1="477.45" x2="221.26" y2="492.04">
  </linearGradient>
  <linearGradient id="id3" gradientUnits="userSpaceOnUse" xlink:href="#id0" x1="423.37" y1="423.83" x2="501.27" y2="447.76">
  </linearGradient>
 </defs>
 <g id="Layer_x0020_1">
  <metadata id="CorelCorpID_0Corel-Layer"/>
  <g id="_-294766880">
   <polygon class="fil0" points="146.55,417.57 131.97,432.15 131.97,565.69 225.92,565.69 225.92,496.94 "/>
   <polygon class="fil1" points="271.97,519.79 271.97,602.3 365.92,602.3 365.92,425.84 "/>
   <polygon class="fil2" points="466.08,325.68 411.97,379.79 411.97,568.47 505.92,568.47 505.92,365.53 "/>
   <polygon class="fil3" points="66.37,437.42 28.7,399.75 146.55,281.9 260.37,395.73 453.92,202.17 491.59,239.84 260.37,471.07 146.55,357.25 "/>
   <path class="fil4" d="M321.97 573.43c-145.44,2.7 -263.88,-115.75 -261.19,-261.19 2.54,-137.07 114.39,-248.92 251.45,-251.46 145.45,-2.7 263.89,115.75 261.19,261.19 -2.54,137.07 -114.39,248.91 -251.46,251.45zm264.34 -88.7c31.09,-49.82 48.75,-108.88 47.87,-172.12 -2.38,-171.49 -142.72,-311.08 -314.22,-312.59 -177.4,-1.56 -321.51,142.55 -319.95,319.95 1.51,171.58 141.23,311.95 312.8,314.23 63.3,0.84 122.39,-16.89 172.22,-48.06l107.56 107.56c27.98,27.98 73.35,27.98 101.34,0l0 0c27.98,-27.98 27.98,-73.36 0,-101.34l-107.62 -107.62z"/>
   <polygon class="fil3" points="376.39,175.67 518.09,317.38 563.66,130.1 "/>
   <path class="fil3" d="M585.8 485.37c-25.46,40.4 -59.76,74.73 -100.12,100.24 -0.21,0.17 -0.43,0.35 -0.65,0.52 14.09,14.09 28.18,28.18 42.28,42.27 34.19,-35.69 60.14,-79.34 74.79,-127.89l-15.78 -15.78c-0.17,0.21 -0.34,0.43 -0.51,0.64z"/>
  </g>
 </g>
</svg>
