<?xml version="1.0" encoding="UTF-8"?>
<!DOCTYPE svg PUBLIC "-//W3C//DTD SVG 1.1//EN" "http://www.w3.org/Graphics/SVG/1.1/DTD/svg11.dtd">
<!-- Creator: CorelDRAW 2019 -->
<svg xmlns="http://www.w3.org/2000/svg" xml:space="preserve" width="2.73134in" height="0.646512in" version="1.1" style="shape-rendering:geometricPrecision; text-rendering:geometricPrecision; image-rendering:optimizeQuality; fill-rule:evenodd; clip-rule:evenodd"
viewBox="0 0 2731.34 646.51"
 xmlns:xlink="http://www.w3.org/1999/xlink">
 <defs>
  <style type="text/css">
   <![CDATA[
    .fil5 {fill:#373435}
    .fil0 {fill:#373435;fill-rule:nonzero}
    .fil6 {fill:url(#id0);fill-rule:nonzero}
    .fil1 {fill:url(#id1);fill-rule:nonzero}
    .fil3 {fill:url(#id2);fill-rule:nonzero}
    .fil2 {fill:url(#id3);fill-rule:nonzero}
    .fil4 {fill:url(#id4);fill-rule:nonzero}
   ]]>
  </style>
  <linearGradient id="id0" gradientUnits="userSpaceOnUse" x1="78.44" y1="261.35" x2="614.69" y2="325.06">
   <stop offset="0" style="stop-opacity:1; stop-color:#35C4E8"/>
   <stop offset="1" style="stop-opacity:1; stop-color:#149BCE"/>
  </linearGradient>
  <linearGradient id="id1" gradientUnits="userSpaceOnUse" xlink:href="#id0" x1="1962.39" y1="276.96" x2="2687.98" y2="316.1">
  </linearGradient>
  <linearGradient id="id2" gradientUnits="userSpaceOnUse" xlink:href="#id0" x1="256.34" y1="449.76" x2="326.81" y2="465.48">
  </linearGradient>
  <linearGradient id="id3" gradientUnits="userSpaceOnUse" xlink:href="#id0" x1="129.69" y1="431.91" x2="200.16" y2="445.11">
  </linearGradient>
  <linearGradient id="id4" gradientUnits="userSpaceOnUse" xlink:href="#id0" x1="382.99" y1="383.41" x2="453.46" y2="405.05">
  </linearGradient>
 </defs>
 <g id="Layer_x0020_1">
  <metadata id="CorelCorpID_0Corel-Layer"/>
  <path class="fil0" d="M774.5 309.48l0 106.76 -61.83 0 0 -267.65c0,-8.68 3.04,-16.09 9.12,-22.17 6.08,-6.08 13.5,-9.12 22.17,-9.12l101.72 0c31.88,0 55.68,8.08 71.32,24.32 16.24,16.24 24.32,40.33 24.32,72.21 0,30.1 -7.78,53.9 -23.43,71.32 -15.64,16.24 -38.26,24.31 -67.76,24.31l-75.62 0zm0 -53.82l59.91 0c16.16,0 27.73,-3.48 34.7,-10.46 7.49,-6.37 11.27,-17.42 11.27,-33.14 0,-13.35 -3.48,-24.1 -10.38,-32.25 -8.16,-6.97 -18.83,-10.45 -32.18,-10.45l-63.31 0 0 86.3zm177.94 160.59l0 -112.17c0,-22.61 3.33,-41.59 10.01,-56.94 6.67,-15.42 15.79,-27.73 27.43,-37 11.05,-8.67 23.95,-15.05 38.7,-19.13 14.76,-4.07 29.95,-6.08 45.6,-6.08 1.19,0 2.59,0 4.37,0 1.7,0 3.19,0 4.37,0l0 61.83 -20.02 0c-16.83,0 -29.28,4.08 -37.37,12.16 -8.08,8.16 -12.16,20.83 -12.16,38.26l0 119.07 -60.94 0zm165.19 -20.83c-12.16,-10.45 -20.83,-24.46 -26.1,-42.19 -5.19,-17.65 -7.78,-36.03 -7.78,-55.16 0,-15.64 2.15,-31.29 6.52,-46.93 4.3,-15.65 11.12,-28.62 20.39,-39.07 15.05,-17.35 34.47,-27.66 58.2,-30.84 23.8,-3.19 45.23,-1.33 64.35,5.63 21.94,8.67 38.19,23.8 48.64,45.22 9.86,19.06 14.75,41.37 14.75,66.87 0,18.54 -2,34.48 -6.08,47.75 -4.08,13.35 -9.27,24.69 -15.64,33.96 -13.87,19.06 -31.59,30.92 -53.01,35.59 -19.13,5.19 -38.33,5.63 -57.76,1.33 -19.43,-4.37 -34.92,-11.79 -46.48,-22.17zm41.59 -152.95c-12.16,13.34 -17.65,33.21 -16.46,59.53 1.11,26.32 6.08,44.71 14.75,55.16 3.48,4.67 9.56,8.53 18.24,11.72 8.67,3.19 17.5,3.48 26.47,0.89 8.97,-2.6 16.98,-9.12 23.94,-19.57 6.9,-10.38 10.68,-27.21 11.27,-50.34 0,-20.91 -3.34,-36.55 -10.01,-46.93 -6.67,-10.45 -14.31,-17.13 -22.98,-20.02 -8.68,-2.89 -17.43,-3.04 -26.1,-0.44 -8.67,2.67 -15.05,6.01 -19.13,10.01zm249.63 173.78c-19.13,1.19 -39.81,0.89 -62.13,-0.89 -22.32,-1.7 -33.51,-15.94 -33.51,-42.56l0 -255.49 31.36 0c7.49,0 14.16,2.89 20.02,8.67 5.78,5.78 8.67,12.68 8.67,20.83l0 39 35.59 0 0 12.23c0,8.68 -2.89,15.8 -8.68,21.28 -5.78,5.56 -12.75,8.3 -20.83,8.3l-6.08 0 0 128.49c0,9.86 5.78,14.75 17.35,14.75l18.24 0 0 45.37zm33.73 -20.83c-12.16,-10.45 -20.83,-24.46 -26.1,-42.19 -5.19,-17.65 -7.78,-36.03 -7.78,-55.16 0,-15.64 2.15,-31.29 6.52,-46.93 4.3,-15.65 11.12,-28.62 20.39,-39.07 15.05,-17.35 34.47,-27.66 58.2,-30.84 23.8,-3.19 45.23,-1.33 64.35,5.63 21.94,8.67 38.19,23.8 48.64,45.22 9.86,19.06 14.75,41.37 14.75,66.87 0,18.54 -2,34.48 -6.08,47.75 -4.08,13.35 -9.27,24.69 -15.64,33.96 -13.87,19.06 -31.59,30.92 -53.01,35.59 -19.13,5.19 -38.33,5.63 -57.76,1.33 -19.43,-4.37 -34.92,-11.79 -46.48,-22.17zm41.59 -152.95c-12.16,13.34 -17.65,33.21 -16.46,59.53 1.11,26.32 6.08,44.71 14.75,55.16 3.48,4.67 9.56,8.53 18.24,11.72 8.67,3.19 17.5,3.48 26.47,0.89 8.97,-2.6 16.98,-9.12 23.94,-19.57 6.9,-10.38 10.68,-27.21 11.27,-50.34 0,-20.91 -3.34,-36.55 -10.01,-46.93 -6.67,-10.45 -14.31,-17.13 -22.98,-20.02 -8.68,-2.89 -17.43,-3.04 -26.1,-0.44 -8.67,2.67 -15.05,6.01 -19.13,10.01zm348.39 173.78l-30.47 0c-8.68,0 -15.79,-2.74 -21.28,-8.23 -5.56,-5.56 -8.3,-12.61 -8.3,-21.35l0 0 0 -118.18c0,-13.86 -4.15,-24.02 -12.53,-30.39 -8.38,-6.38 -17.79,-9.57 -28.17,-9.57 -10.38,0 -19.57,3.19 -27.65,9.57 -8.08,6.37 -12.16,16.53 -12.16,30.39l0 147.76 -60.94 0 0 -135.45c0,-39.37 10.31,-65.76 30.84,-79.04 20.54,-13.35 43.3,-20.54 68.21,-21.72 25.43,0 48.93,6.67 70.36,19.94 21.43,13.35 32.1,40.26 32.1,80.81l0 135.45z"/>
  <path class="fil1" d="M2022.33 345.02l43.44 0c-6.37,24.31 -18.54,42.85 -36.48,55.6 -17.94,13.35 -40.56,20.02 -67.76,20.02 -32.99,0 -58.87,-10.75 -77.4,-32.18 -18.61,-20.83 -27.88,-50.64 -27.88,-89.49 0,-37.07 8.97,-65.98 26.99,-86.82 18.61,-21.43 44.41,-32.18 77.4,-32.18 34.77,0 61.69,10.38 80.81,31.21 18.54,21.35 27.8,51.16 27.8,89.34 0,2.3 0,4.3 0,6 0,1.78 0,2.89 0,3.48 0,2.89 -0.3,4.89 -0.89,6.08l-150.28 0c0.59,18.09 4.89,31.51 13.05,40.26 7.49,9.34 18.83,14.01 33.88,14.01 9.86,0 18.24,-2.07 25.21,-6.15 1.7,-0.52 3.33,-1.56 4.74,-3.04 1.48,-1.41 3.04,-3.04 4.82,-4.82 0.52,-1.7 2.74,-4.08 6.45,-6.97 3.78,-2.89 9.19,-4.37 16.09,-4.37zm-104.24 -68.06l88.6 0c-1.11,-15.57 -5.19,-27.13 -12.16,-34.62 -7.49,-8.08 -18.24,-12.09 -32.1,-12.09 -12.75,0 -23.2,4 -31.29,12.09 -8.15,8.08 -12.46,19.65 -13.05,34.62zm313.76 -160.59l29.58 0c8.16,0 15.05,3.04 20.91,9.12 5.78,6.08 8.67,12.9 8.67,20.46l0 169.48c0,41.15 -11.86,68.95 -35.66,83.48 -23.8,14.46 -49.6,21.72 -77.48,21.72 -15.05,0 -29.88,-2.45 -44.33,-7.41 -14.53,-4.89 -26.1,-12.83 -34.85,-23.87 -16.83,-21.43 -25.21,-50.64 -25.21,-87.71 0,-36.55 8.38,-65.76 25.21,-87.78 17.42,-22.61 39.74,-33.88 67.02,-33.88 14.53,0 27.28,2.89 38.26,8.68 11.64,6.97 20.91,15.94 27.88,26.91l0 -99.2zm-99.2 182.68c0,23.2 4.37,40.85 13.05,53.08 8.67,12.16 21.2,18.24 37.44,18.24 15.65,0 27.8,-6.08 36.55,-18.24 8.08,-12.23 12.16,-29.88 12.16,-53.08 0,-20.91 -4.38,-37.44 -13.05,-49.6 -9.27,-11.64 -21.72,-17.43 -37.44,-17.43 -15.05,0 -26.99,6.08 -35.66,18.24 -8.67,11.64 -13.05,27.87 -13.05,48.78zm321.62 103.35l0 -14.75c-10.46,16.16 -24.54,26.32 -42.19,30.4 -17.72,4 -35.29,2.59 -52.64,-4.37 -17.43,-6.97 -32.33,-19.8 -44.85,-38.63 -12.46,-18.83 -18.69,-43.59 -18.69,-74.29 0,-35.96 8.23,-65.02 24.76,-87.34 16.53,-22.31 43.07,-33.44 79.63,-33.44 27.88,0 53.68,7.56 77.48,22.61 23.8,15.05 35.66,42.85 35.66,83.41l0 122.48c0,40.55 -11.86,68.21 -35.66,82.96 -23.8,14.76 -49.6,22.17 -77.4,22.17 -53.23,0 -86.3,-24.91 -98.98,-74.74l63.39 0c4.59,8.08 11.71,14.31 21.28,18.69 9.57,4.37 19.13,5.49 28.69,3.48 9.57,-2.07 18.24,-7.71 26.02,-16.98 7.86,-9.27 12.31,-23.13 13.5,-41.67zm-99.2 -100.02c0,39.96 11.57,62.13 34.77,66.43 23.13,4.37 40.26,-0.96 51.23,-16.02 5.19,-6.38 8.97,-16.39 11.34,-30.03 2.3,-13.57 2.44,-27.06 0.37,-40.41 -2,-13.27 -6.75,-25.13 -14.31,-35.59 -7.56,-10.46 -18.54,-15.65 -32.99,-15.65 -19.72,0 -33.07,7.27 -39.96,21.72 -6.97,14.46 -10.45,30.99 -10.45,49.52zm329.33 42.63l43.44 0c-6.37,24.31 -18.54,42.85 -36.48,55.6 -17.94,13.35 -40.56,20.02 -67.76,20.02 -32.99,0 -58.87,-10.75 -77.4,-32.18 -18.61,-20.83 -27.88,-50.64 -27.88,-89.49 0,-37.07 8.97,-65.98 26.99,-86.82 18.61,-21.43 44.41,-32.18 77.4,-32.18 34.77,0 61.69,10.38 80.81,31.21 18.54,21.35 27.8,51.16 27.8,89.34 0,2.3 0,4.3 0,6 0,1.78 0,2.89 0,3.48 0,2.89 -0.3,4.89 -0.89,6.08l-150.28 0c0.59,18.09 4.89,31.51 13.05,40.26 7.49,9.34 18.83,14.01 33.88,14.01 9.86,0 18.24,-2.07 25.21,-6.15 1.7,-0.52 3.33,-1.56 4.74,-3.04 1.48,-1.41 3.04,-3.04 4.82,-4.82 0.52,-1.7 2.74,-4.08 6.45,-6.97 3.78,-2.89 9.19,-4.37 16.09,-4.37zm-104.24 -68.06l88.6 0c-1.11,-15.57 -5.19,-27.13 -12.16,-34.62 -7.49,-8.08 -18.24,-12.09 -32.1,-12.09 -12.75,0 -23.2,4 -31.29,12.09 -8.15,8.08 -12.46,19.65 -13.05,34.62z"/>
  <g id="_-223117416">
   <polygon class="fil2" points="132.57,377.74 119.38,390.93 119.38,511.73 204.37,511.73 204.37,449.55 "/>
   <polygon class="fil3" points="246.03,470.22 246.03,544.85 331.02,544.85 331.02,385.22 "/>
   <polygon class="fil4" points="421.63,294.61 372.68,343.56 372.68,514.25 457.67,514.25 457.67,330.66 "/>
   <polygon class="fil5" points="60.04,395.7 25.96,361.62 132.57,255.02 235.54,357.98 410.63,182.89 444.7,216.96 235.54,426.14 132.57,323.17 "/>
   <path class="fil6" d="M291.26 518.74c-131.57,2.44 -238.72,-104.71 -236.28,-236.28 2.3,-124 103.48,-225.18 227.47,-227.48 131.57,-2.44 238.72,104.71 236.28,236.28 -2.3,124 -103.48,225.17 -227.47,227.47zm239.13 -80.24c28.12,-45.06 44.1,-98.49 43.31,-155.7 -2.15,-155.13 -129.11,-281.41 -284.25,-282.78 -160.48,-1.41 -290.85,128.96 -289.43,289.43 1.37,155.21 127.76,282.2 282.96,284.25 57.26,0.76 110.72,-15.28 155.79,-43.48l97.3 97.3c25.31,25.31 66.36,25.31 91.67,0l0 0c25.31,-25.31 25.31,-66.36 0,-91.67l-97.35 -97.35z"/>
   <polygon class="fil5" points="340.49,158.91 468.68,287.1 509.9,117.69 "/>
   <path class="fil5" d="M529.93 439.07c-23.03,36.54 -54.06,67.61 -90.57,90.68 -0.2,0.15 -0.39,0.31 -0.59,0.46 12.75,12.75 25.5,25.5 38.24,38.24 30.93,-32.28 54.4,-71.77 67.65,-115.69l-14.28 -14.28c-0.15,0.19 -0.31,0.39 -0.46,0.58z"/>
  </g>
 </g>
</svg>
